<svg width="64" height="64" viewBox="0 0 64 64" fill="none" xmlns="http://www.w3.org/2000/svg">
<path d="M9.09477 47.8001C7.24886 47.8001 5.47856 48.5334 4.1733 49.8386C2.86805 51.1439 2.13477 52.9142 2.13477 54.7601C2.13477 56.606 2.86805 58.3763 4.1733 59.6816C5.47856 60.9868 7.24886 61.7201 9.09477 61.7201C10.9442 61.7201 12.7179 60.9854 14.0257 59.6777C15.3334 58.3699 16.0681 56.5962 16.0681 54.7468C16.0681 52.8973 15.3334 51.1236 14.0257 49.8159C12.7179 48.5081 10.9442 47.7734 9.09477 47.7734V47.8001Z" stroke="#F5C443" stroke-width="4" stroke-linecap="round" stroke-linejoin="round"/>
<path d="M25.3613 48.2006H38.6146V61.4539H25.3346L25.3613 48.2006Z" stroke="#F5C443" stroke-width="4" stroke-linecap="round" stroke-linejoin="round"/>
<path d="M61.8652 61.4545H45.9186L53.8652 46.8412L61.8119 61.4279L61.8652 61.4545Z" stroke="#F5C443" stroke-width="4" stroke-linecap="round" stroke-linejoin="round"/>
<path d="M41.9482 11.9735C41.9482 6.45345 37.4948 2.00012 32.0015 2.00012C26.4815 1.97345 22.0282 6.42679 22.0282 11.9201C22.0015 15.8668 24.3482 19.4668 27.9748 21.0401V25.8695H35.9215V21.0268C39.5215 19.4268 41.8682 15.8535 41.8948 11.9201L41.9482 11.9735Z" stroke="#F5C443" stroke-width="4" stroke-linecap="round" stroke-linejoin="round"/>
<path d="M9.41467 40.8992V34.2592H54.5347V40.8725" stroke="#F5C443" stroke-width="4" stroke-linecap="round" stroke-linejoin="round"/>
<path d="M32.0013 25.9076V39.5876" stroke="#F5C443" stroke-width="4" stroke-linecap="round" stroke-linejoin="round"/>
</svg>
