<svg width="64" height="64" viewBox="0 0 64 64" fill="none" xmlns="http://www.w3.org/2000/svg">
<g clip-path="url(#clip0_116_22832)">
<path d="M15.9999 2C13.8781 2 11.8433 2.84285 10.343 4.34315C8.84273 5.84344 7.99988 7.87827 7.99988 10C7.99988 12.1217 8.84273 14.1566 10.343 15.6569C11.8433 17.1571 13.8781 18 15.9999 18C18.1216 18 20.1564 17.1571 21.6567 15.6569C23.157 14.1566 23.9999 12.1217 23.9999 10C23.9999 7.87827 23.157 5.84344 21.6567 4.34315C20.1564 2.84285 18.1216 2 15.9999 2V2Z" stroke="#F3CC5D" stroke-width="4" stroke-linecap="round" stroke-linejoin="round"/>
<path d="M28.1331 29.0353C24.2665 22.3153 15.7065 19.9953 9.01315 23.8619C4.63981 26.3419 1.97314 30.9819 1.97314 35.9953V41.9953H7.97314L9.97314 61.9953H21.9731L22.8265 53.3339" stroke="#F3CC5D" stroke-width="4" stroke-linecap="round" stroke-linejoin="round"/>
<path d="M45.9999 30C41.7564 30 37.6868 31.6857 34.6862 34.6863C31.6856 37.6869 29.9999 41.7565 29.9999 46C29.9999 50.2435 31.6856 54.3131 34.6862 57.3137C37.6868 60.3143 41.7564 62 45.9999 62C50.2433 62 54.313 60.3143 57.3136 57.3137C60.3142 54.3131 61.9999 50.2435 61.9999 46C61.9999 41.7565 60.3142 37.6869 57.3136 34.6863C54.313 31.6857 50.2433 30 45.9999 30Z" stroke="#F3CC5D" stroke-width="4" stroke-linecap="round" stroke-linejoin="round"/>
<path d="M40.9863 43H40.9836C40.9836 40.2267 43.197 38 45.9836 38C48.7303 38 50.9836 40.2133 50.9836 43C50.9836 45.7467 48.7436 48 45.9836 48" stroke="#F3CC5D" stroke-width="4" stroke-linecap="round" stroke-linejoin="round"/>
<path d="M45.9999 54C45.4399 54 44.9999 54.4267 44.9999 55C44.9999 55.5333 45.4265 56 45.9999 56C46.5332 56 46.9999 55.5467 46.9999 55C46.9999 54.44 46.5465 54 45.9999 54Z" stroke="#F3CC5D" stroke-width="4" stroke-linecap="round" stroke-linejoin="round"/>
<path d="M43.9999 2C42.1434 2 40.3629 2.7375 39.0501 4.05025C37.7374 5.36301 36.9999 7.14348 36.9999 9C36.9999 10.8565 37.7374 12.637 39.0501 13.9497C40.3629 15.2625 42.1434 16 43.9999 16C45.8564 16 47.6369 15.2625 48.9496 13.9497C50.2624 12.637 50.9999 10.8565 50.9999 9C50.9999 7.14348 50.2624 5.36301 48.9496 4.05025C47.6369 2.7375 45.8564 2 43.9999 2V2Z" stroke="#F3CC5D" stroke-width="4" stroke-linecap="round" stroke-linejoin="round"/>
<path d="M54.4002 23.9999C51.0669 18.2399 43.7335 16.2933 38.0002 19.5999C36.8535 20.2399 35.8135 21.0933 34.9602 22.0799" stroke="#F3CC5D" stroke-width="4" stroke-linecap="round" stroke-linejoin="round"/>
</g>
<defs>
<clipPath id="clip0_116_22832">
<rect width="64" height="64" fill="white"/>
</clipPath>
</defs>
</svg>
