<?xml version="1.0" encoding="utf-8"?>

<!DOCTYPE svg PUBLIC "-//W3C//DTD SVG 1.1//EN" "http://www.w3.org/Graphics/SVG/1.1/DTD/svg11.dtd">
<svg version="1.1" id="Layer_1" xmlns="http://www.w3.org/2000/svg" xmlns:xlink="http://www.w3.org/1999/xlink" x="0px" y="0px"
	 width="100px" height="100px" viewBox="0 0 100 100" style="enable-background:new 0 0 100 100;" xml:space="preserve">
<style type="text/css">
<![CDATA[
	.st0{fill:#FFFFFF;}
	.st1{fill:none;stroke:#00AEEF;stroke-miterlimit:10;stroke-dasharray:12.0799,12.0799;}
	.st2{fill:#00AEEF;}
]]>
</style>
<g>
	<circle class="st1" cx="50" cy="50" r="50">
		<animateTransform attributeName="transform"
			 attributeType="XML"
			 type="rotate"
			 from="0 50 50"
			 to="360 50 50"
			 dur="10s"
			 repeatCount="indefinite"/>
	</circle>
</g>
<circle class="st2" cx="50" cy="50" r="39.966"/>
<path class="st0" d="M39.667,61.5c0,1.749-1.417,3.167-3.167,3.167l0,0c-1.749,0-3.167-1.418-3.167-3.167V37.167
	c0-1.749,1.417-3.167,3.167-3.167l0,0c1.749,0,3.167,1.417,3.167,3.167V61.5z">

	<animateTransform id="aaa"
		 attributeName="transform"
		 attributeType="XML"
		 type="translate"
		 dur="1s"
		 values="0,6;0,-6;0,6"
		 repeatCount="indefinite"/>
</path>
<path class="st0" d="M51.5,61.5c0,1.749-1.417,3.167-3.166,3.167l0,0c-1.749,0-3.167-1.418-3.167-3.167V37.167
	c0-1.749,1.417-3.167,3.167-3.167l0,0c1.749,0,3.166,1.417,3.166,3.167V61.5z">

	<animateTransform id="aaa"
		 attributeName="transform"
		 attributeType="XML"
		 type="translate"
		 begin=".1s"
		 dur="1s"
		 values="0,6;0,-6;0,6"
		 repeatCount="indefinite"/>
</path>
<path class="st0" d="M64,61.5c0,1.749-1.416,3.167-3.166,3.167l0,0c-1.748,0-3.166-1.418-3.166-3.167V37.167
	c0-1.749,1.418-3.167,3.166-3.167l0,0C62.584,34,64,35.417,64,37.167V61.5z">

	<animateTransform id="aaa"
		 attributeName="transform"
		 attributeType="XML"
		 type="translate"
		 begin=".2s"
		 dur="1s"
		 values="0,6;0,-6;0,6"
		 repeatCount="indefinite"/>
</path>
</svg>
