<?xml version="1.0" encoding="utf-8"?>
<!-- Generator: Adobe Illustrator 21.1.0, SVG Export Plug-In . SVG Version: 6.00 Build 0)  -->
<svg version="1.1" id="Layer_1" xmlns="http://www.w3.org/2000/svg" xmlns:xlink="http://www.w3.org/1999/xlink" x="0px" y="0px"
	 viewBox="0 0 434 130" style="enable-background:new 0 0 434 130;" xml:space="preserve">
<style type="text/css">
	.st0{fill:#333333;stroke:#000000;stroke-miterlimit:10;}
</style>
<g id="Layer_1_1_">
</g>
<g id="Layer_2">
	<g>
		<g>
			<g>
				<path class="st0" d="M269,119.3c23,1.3,30.5-22.5,33.8-40.8c-1.3-0.2-2.6-0.3-3.8-0.5c-0.8,6.4-0.2,14.3,7.6,15.5
					c7.6,1.2,12.8-5.2,16.7-10.8c1.5-2.1-1.9-4-3.4-2c-6.2,8.7-11.3,21.8-7,32.5c3.4,8.4,13.2,4.4,16.2-2.3c1-2.3-1-5.7-2-3.4
					c-1.6,3.6-7.7,8.6-10.5,4.3c-1.5-2.3-1.3-6.6-1.1-9.3c0.3-7.3,3.6-14,7.8-19.9c-1.1-0.7-2.3-1.3-3.4-2c-2.1,3-5.7,8.6-9.9,8.8
					c-4,0.2-7.2-2.5-7.5-6.3c-0.1-1.7,0.2-3.6,0.4-5.3c0.3-2.2-3.5-2.7-3.8-0.5c-2.9,16.5-8.8,39.1-30,37.9
					C266.5,115.3,266.5,119.2,269,119.3L269,119.3z"/>
			</g>
			<g>
				<path class="st0" d="M324.9,26.4c-11,2.2-22.1,4.4-33.3,3.8c-10.4-0.5-20.5-3.7-30.7-5.8c-10.8-2.3-33.1-6.2-39,7.1
					c-5.6,12.3,11.2,19.7,20.5,20.9c13.8,1.9,27.6-5.1,38.9-12.2c13.6-8.5,15.4-21.5,17.2-36.2c-1.3,0-2.6,0-3.9,0
					c-1.2,19.2-6.7,37.7-11.9,56.1c-5.3,18.6-10.4,38-15.7,56.6c-0.7,2.4,3.2,3.7,3.9,1.3c5.5-19.4,10.7-39.9,16.2-59.3
					c5.1-18,10.1-35.9,11.3-54.7c0.2-2.6-3.6-2.4-3.9,0c-0.8,6.5-1.1,13.4-3.6,19.5c-3.4,8.7-11.1,13.2-18.9,17.4
					c-12.4,6.6-29,12.4-41.9,3.1c-4.9-3.5-7.6-10.2-1.6-14.5c3.9-2.7,9-3.3,13.5-3.4c9.9-0.3,19.6,2.4,29.2,4.6
					c8.8,2,17.5,3.7,26.5,3.4c9.5-0.3,18.8-2.2,28-4C328.4,29.7,327.4,25.9,324.9,26.4L324.9,26.4z"/>
			</g>
			<g>
				<path class="st0" d="M352.4,110.1c1.1-6.5,2.2-13.1,3.3-19.6c-1.3-0.3-2.5-0.7-3.8-1c-1,6.8-2.1,14.6-6.9,19.8
					c-2.5,2.7-7.6,6.1-11.5,4.5c-5-2-3.3-9.4-2.3-13.2c1.6-6,4.6-11.8,10.3-14.8c4.9-2.6,10.1-2.7,10.4,4.2c0.1,2.5,4,2.5,3.9,0
					c-0.3-7.2-4.7-11.3-12-9.3c-9.3,2.5-14.5,11-16.7,19.9c-2.1,8.6-0.3,19.4,11.1,17.2c12.5-2.5,15.9-16.5,17.5-27.2
					c0.4-2.5-3.4-3.5-3.8-1c-1.1,6.5-0.3,10.3-1.4,16.8C350.1,108.7,352,112.6,352.4,110.1L352.4,110.1z"/>
			</g>
			<g>
				<g>
					<path class="st0" d="M349.2,104.7c-0.4,4.5-0.4,10.5,4.4,12.8c5.3,2.5,10.1-2,12.4-6.3c2.3-4.2,4-8.9,5.9-13.3
						c0.9-2.2,2.1-4.5,2.9-6.7c1.7-4.5,5.9-7.5,8.3-3.2c1.7,3.2-0.6,11.4-1.3,14.5c-1.1,4.6-2.5,9.1-3.8,13.6
						c-0.7,2.4,3.1,3.5,3.8,1c1.8-6.7,11.8-32.4-1-34.9c-5.9-1.1-8.8,5.8-10.7,10c-2.1,4.7-4.1,9.5-6.2,14.2c-0.9,1.9-2.6,6.3-4.8,7
						c-7.2,2.2-6.2-5.6-5.9-8.8C353.4,102.2,349.5,102.2,349.2,104.7L349.2,104.7z"/>
				</g>
				<g>
					<path class="st0" d="M385.7,103.7c1.3-3.9,3.4-11.1,5.2-14.3c1.5-2.8,5.3-5.8,9.4-4.4c4.9,1.7,3.9,6.9,4,10.1
						c0.1,6-0.8,13.4,2,19c5.9,11.5,23.3-3.8,27.3-10.1c1.4-2.1-2-4.1-3.4-2c-2.5,3.9-6.2,7-10.1,9.3c-4.4,2.5-9.2,4.8-11.1-1.3
						c-2.3-7.5,1.1-16.2-1.8-23.5c-2.1-5.5-8.6-7-13.7-4.7c-6.2,2.7-7.7,10.7-10.3,16.3c-1,2.3,0,7.8,1,5.6
						C384.2,103.7,385.7,103.7,385.7,103.7z"/>
				</g>
			</g>
		</g>
		<g>
			<g>
				<path class="st0" d="M52,63.6c4.6-15.5-13.1-29.1-26.3-18.3c-11.7,9.6-9.5,34.6,4.4,41.1c2.3,1.1,4.1-2,2-3.4
					c-8.3-5.5-19.5-3.2-25.7,4.5c-6.3,7.8-7.1,20-2.9,29c9.6,21.1,42.3,12.5,58.3,5.4c28.1-12.4,37.9-36.1,44.1-59.5
					c2-7.6,6-21.3-4.4-24c-4.5-1.1-10.8,4-12.8,7.3c-3.6,5.8-6.4,12.1-8.5,18.5c-4.3,13.3-7,30.3-2.6,43.9
					c2.9,8.8,13.2,15.9,21.2,8.4c1.8-1.7-0.9-4.5-2.8-2.8c-7.8,7.2-14.5-4.1-15.6-10.6c-1-5.4-1-11.2-0.6-16.7
					c0.8-12.2,4.3-24.2,10.1-35c1.7-3.1,7.2-11.9,12.9-7.9c2.3,1.6,1.7,5.3,1.3,7.8c-1.3,9.1-3.2,14.5-5.1,20.2
					c-3.6,10.8-8.2,21.6-15.8,30.2c-10.4,11.9-36.2,24.6-57,23.6c-13.2-0.6-21.9-9-21.2-22.8C5.6,90.1,17.9,78,30.2,86.1
					c0.7-1.1,1.3-2.3,2-3.4c-10.5-4.9-12.2-21-7.3-30.5c7.4-14.1,27.9-5,23.4,10C47.5,65,51.3,66,52,63.6L52,63.6z"/>
			</g>
			<g>
				<path class="st0" d="M136.6,106.3c-0.4,4.5-1.7,10.2,3.1,12.5c5.3,2.5,10.1-2,12.4-6.3c2.3-4.2,4-8.9,5.9-13.3
					c0.9-2.2,2.1-4.5,2.9-6.7c1.7-4.5,5.9-7.5,8.3-3.2c1.7,3.2-0.6,11.4-1.3,14.5c-1.1,4.6-2.5,9.1-3.8,13.6c-0.7,2.4,3.1,3.5,3.8,1
					c1.8-6.7,11.8-32.4-1-34.9c-5.9-1.1-8.8,5.8-10.7,10c-2.1,4.7-4.1,9.5-6.2,14.2c-0.9,1.9-3.4,6.9-5.5,7.5
					c-7.2,2.2-4.2-17.6-3.9-20.9c0.2-2.5-4.9,9-5.2,11.4L136.6,106.3z"/>
			</g>
			<g>
				<path class="st0" d="M171.8,105c1.3-3.9,3.8-11.8,6.2-15.2c1.8-2.4,5.2-4.7,8.4-3.5c4.8,1.8,4,8.5,4,12.3
					c0.1,5.9-2.5,17,4.1,20.2c13.4,6.6,29.9-6.9,31.7-20.1c0.8-6.3-1.5-14.4-8.7-15.9c-5.5-1.2-11.2,2.2-13.3,6.9
					c-6.2,14,5.1,28.6,19.2,29.6c2.5,0.2,2-3.9,0-3.9c-6.3,0-14-5.8-16.3-11.7c-1.6-4-1.1-10.8,1.3-14.3c3.6-5.4,11.2-4.3,13.5,2.4
					c2.6,7.6-2.2,16.1-8.3,20.4c-6.3,4.5-19.9,8.1-19.6-3.2c0.2-8,3.3-25.3-8.1-26.7c-10.6-1.3-13,9.7-16.4,17.2c-1,2.3,0,7.8,1,5.6
					L171.8,105L171.8,105z"/>
			</g>
			<g>
				<path class="st0" d="M136.5,84.5c0.2,7.5,0.8,17-2.5,23.9c-1.2,2.5-2.9,4.9-5.5,5.9c-5.7,2.3-6.6-1.4-6.3-6.7
					c0.3-5.3,1.9-10.5,2.7-15.8c-1.3-0.3-2.6-1-3.9-1.4c-1,6.6-1.9,13.7-6.2,19.1c-2.5,3.1-7.8,7.2-12.2,5.4c-5-2-3.3-9.4-2.3-13.2
					c1.6-5.8,4.5-11.6,9.9-14.6c5-2.7,10.4-3,10.8,4c0.1,2.5,4,2.5,3.9,0c-0.4-7.3-4.8-11.3-12.2-9.3c-9.2,2.6-14.4,11-16.5,19.8
					c-2,8.6-0.4,19.4,11,17.2c12.7-2.4,15.9-16.6,17.5-27.4c0.4-2.5-3.4-3.5-3.8-1c-0.9,5.4-1.7,10.7-2.6,16.1
					c-0.4,2.7-1.2,5.2-0.1,7.8c2.1,5,7,5.7,11.5,3.7c11.9-5.3,10.9-22.9,10.6-33.6C140.3,82,136.4,82,136.5,84.5L136.5,84.5z"/>
			</g>
			<g>
				<path class="st0" d="M223.4,119.3c8.6,0.8,18.3-7.1,22.6-14c1.3-2.2-2.1-4.1-3.4-2c-3.6,5.8-12,12.7-19.2,12.1
					C220.8,115.2,220.9,119.1,223.4,119.3L223.4,119.3z"/>
			</g>
			<g>
				<g>
					<path class="st0" d="M138.3,71.5c-0.4,0-0.8,0-1.2,0.1c-0.7,0-1.2,0.4-1.4,1.1c-1,2.8,2.3,5.4,4.7,3.7c1.1-0.8,1.8-2.2,1.4-3.5
						c-0.4-1.4-1.7-2.3-3.1-2.4c-1.9,0-1.9,3,0,3c0.1,0,0.2,0.1,0.3,0.2c-0.1-0.1-0.1,0.1,0,0s-0.1,0.1-0.1,0.1
						c-0.1,0.1-0.1,0.1,0,0c-0.2,0.1-0.2,0.1-0.1,0c0.2,0.1,0-0.1,0,0s-0.1-0.2-0.1-0.2s0-0.1,0.1-0.2c-0.5,0.4-1,0.7-1.4,1.1
						c0.4,0,0.8,0,1.2-0.1c0.8,0,1.5-0.7,1.5-1.5C139.8,72.2,139.1,71.5,138.3,71.5L138.3,71.5z"/>
				</g>
			</g>
		</g>
	</g>
</g>
</svg>
