<?xml version="1.0" encoding="utf-8"?>
<!-- Generator: Adobe Illustrator 16.0.0, SVG Export Plug-In . SVG Version: 6.00 Build 0)  -->
<!DOCTYPE svg PUBLIC "-//W3C//DTD SVG 1.1//EN" "http://www.w3.org/Graphics/SVG/1.1/DTD/svg11.dtd">
<svg version="1.1" id="Layer_1" xmlns="http://www.w3.org/2000/svg" xmlns:xlink="http://www.w3.org/1999/xlink" x="0px" y="0px"
	 width="55px" height="54px" viewBox="0 0 55 54" enable-background="new 0 0 55 54" xml:space="preserve">
<g>
	<g>
		<path fill="#E78E8E" d="M9.332,19.858h8.155v26.203H9.332V19.858z M13.409,6.834c2.608,0,4.723,2.12,4.723,4.719
			c0,2.608-2.115,4.729-4.723,4.729c-2.613,0-4.724-2.119-4.724-4.729C8.686,8.954,10.796,6.834,13.409,6.834"/>
		<path fill="#E78E8E" d="M22.598,19.858h7.816v3.581h0.104c1.09-2.059,3.748-4.231,7.711-4.231c8.244,0,9.771,5.422,9.771,12.479
			v14.373h-8.141V33.322c0-3.039-0.063-6.948-4.232-6.948c-4.244,0-4.891,3.306-4.891,6.722v12.965h-8.139L22.598,19.858
			L22.598,19.858z"/>
	</g>
</g>
</svg>
