<?xml version="1.0" encoding="utf-8"?>
<!-- Generator: Adobe Illustrator 16.0.0, SVG Export Plug-In . SVG Version: 6.00 Build 0)  -->
<!DOCTYPE svg PUBLIC "-//W3C//DTD SVG 1.1//EN" "http://www.w3.org/Graphics/SVG/1.1/DTD/svg11.dtd">
<svg version="1.1" id="Layer_1" xmlns="http://www.w3.org/2000/svg" xmlns:xlink="http://www.w3.org/1999/xlink" x="0px" y="0px"
	 width="32px" height="25.5px" viewBox="0 28.5 32 25.5" enable-background="new 0 28.5 32 25.5" xml:space="preserve">
<path fill="#666666" d="M20.075,36.564h-3.521v-1.73c0-0.777-0.631-1.408-1.409-1.408c-0.776,0-1.408,0.631-1.408,1.408v1.73h-6.34
	v-1.73c0-0.777-0.631-1.408-1.409-1.408c-0.777,0-1.408,0.631-1.408,1.408v1.73H1.056C0.472,36.564,0,37.038,0,37.621v15.322
	C0,53.526,0.472,54,1.056,54h19.019c0.584,0,1.057-0.474,1.057-1.057V37.621C21.132,37.038,20.659,36.564,20.075,36.564z
	 M9.862,41.291v2.818H6.516v-2.818H9.862z M11.271,41.291h3.346v2.818h-3.346V41.291z M5.107,41.291v2.818H2.112v-2.818H5.107z
	 M5.107,45.518v2.113H2.112v-2.113H5.107z M6.516,45.518h3.346v2.113H6.516V45.518z M9.862,49.039v2.848H6.516v-2.848H9.862z
	 M11.271,49.039h3.346v2.848h-3.346V49.039z M11.271,47.631v-2.113h3.346v2.113H11.271z M16.025,45.518h2.993v2.113h-2.993V45.518z
	 M16.025,44.109v-2.818h2.993v2.818H16.025z M2.112,49.039h2.995v2.848H2.112V49.039z M16.025,51.887v-2.848h2.993v2.848H16.025z"/>
</svg>
