<?xml version="1.0" encoding="utf-8"?>
<!-- Generator: Adobe Illustrator 16.0.0, SVG Export Plug-In . SVG Version: 6.00 Build 0)  -->
<!DOCTYPE svg PUBLIC "-//W3C//DTD SVG 1.1//EN" "http://www.w3.org/Graphics/SVG/1.1/DTD/svg11.dtd">
<svg version="1.1" id="Layer_1" xmlns="http://www.w3.org/2000/svg" xmlns:xlink="http://www.w3.org/1999/xlink" x="0px" y="0px"
	 width="55px" height="54px" viewBox="0 0 55 54" enable-background="new 0 0 55 54" xml:space="preserve">
<path fill-rule="evenodd" clip-rule="evenodd" fill="#00A99D" d="M36.206,43.849c-7.04-0.256-18.259-5.815-25.938-19.156
	c-2.724-4.745-2.334-10.15,1.666-13.861c1.346-1.264,3.04-0.95,4.628-0.686c0.388,0.058,0.797,0.653,0.995,1.096
	c1.019,2.327,2.031,4.661,2.917,7.04c0.476,1.269-0.391,2.448-2.218,4.544c-0.579,0.661-0.691,1.283-0.243,2.046
	c2.952,5.007,7.083,8.628,12.513,10.745c0.797,0.308,1.401,0.113,1.9-0.507c2.884-3.513,3.17-4.539,4.69-3.821
	c7.284,3.487,7.847,3.637,7.885,4.456C45.248,41.887,39.617,44.099,36.206,43.849z"/>
</svg>
