<?xml version="1.0" encoding="utf-8"?>
<!-- Generator: Adobe Illustrator 16.0.0, SVG Export Plug-In . SVG Version: 6.00 Build 0)  -->
<!DOCTYPE svg PUBLIC "-//W3C//DTD SVG 1.1//EN" "http://www.w3.org/Graphics/SVG/1.1/DTD/svg11.dtd">
<svg version="1.1" id="Layer_1" xmlns="http://www.w3.org/2000/svg" xmlns:xlink="http://www.w3.org/1999/xlink" x="0px" y="0px"
	 width="55px" height="54px" viewBox="0 0 55 54" enable-background="new 0 0 55 54" xml:space="preserve">
<g>
	<g>
		<path fill="#00A99D" d="M26.947,6.328c6.675,0,7.466,0.025,10.102,0.146c2.438,0.111,3.762,0.519,4.643,0.861
			c1.168,0.453,2,0.995,2.875,1.87s1.416,1.708,1.869,2.874c0.342,0.881,0.75,2.205,0.861,4.642
			c0.121,2.637,0.146,3.428,0.146,10.102c0,6.676-0.025,7.466-0.146,10.102c-0.111,2.437-0.52,3.763-0.861,4.642
			c-0.453,1.168-0.994,2-1.869,2.875s-1.709,1.416-2.875,1.871c-0.881,0.342-2.205,0.75-4.643,0.86
			c-2.636,0.12-3.426,0.146-10.102,0.146c-6.675,0-7.465-0.025-10.102-0.146c-2.437-0.11-3.761-0.519-4.642-0.86
			c-1.167-0.455-1.999-0.996-2.874-1.871s-1.417-1.707-1.871-2.875c-0.341-0.879-0.75-2.205-0.86-4.642
			c-0.121-2.636-0.146-3.426-0.146-10.102c0-6.674,0.025-7.465,0.146-10.102c0.111-2.437,0.519-3.761,0.86-4.642
			c0.454-1.167,0.996-1.999,1.871-2.874s1.708-1.417,2.874-1.87c0.881-0.342,2.205-0.75,4.642-0.861
			C19.482,6.353,20.273,6.328,26.947,6.328 M26.947,1.823c-6.79,0-7.641,0.029-10.307,0.15c-2.661,0.122-4.479,0.545-6.069,1.162
			C8.928,3.775,7.533,4.63,6.145,6.019C4.755,7.41,3.9,8.803,3.261,10.447c-0.619,1.59-1.041,3.408-1.163,6.068
			c-0.121,2.668-0.15,3.519-0.15,10.308c0,6.791,0.029,7.642,0.15,10.308c0.122,2.661,0.544,4.479,1.163,6.068
			c0.639,1.645,1.494,3.04,2.884,4.428c1.389,1.391,2.784,2.245,4.427,2.884c1.59,0.619,3.408,1.04,6.069,1.163
			c2.666,0.122,3.517,0.149,10.307,0.149s7.641-0.028,10.308-0.149c2.661-0.123,4.479-0.544,6.068-1.163
			c1.645-0.639,3.039-1.493,4.428-2.884c1.391-1.389,2.245-2.784,2.885-4.428c0.618-1.59,1.04-3.407,1.162-6.068
			c0.121-2.666,0.15-3.517,0.15-10.308c0-6.789-0.029-7.64-0.15-10.308c-0.122-2.66-0.544-4.478-1.162-6.068
			c-0.64-1.646-1.494-3.038-2.885-4.428c-1.391-1.389-2.784-2.244-4.428-2.884c-1.59-0.617-3.407-1.04-6.068-1.162
			C34.588,1.853,33.736,1.823,26.947,1.823"/>
		<path fill="#00A99D" d="M26.947,13.986c-7.09,0-12.837,5.747-12.837,12.837c0,7.091,5.747,12.838,12.837,12.838
			c7.091,0,12.838-5.747,12.838-12.838C39.785,19.733,34.038,13.986,26.947,13.986 M26.947,35.156c-4.602,0-8.333-3.73-8.333-8.333
			c0-4.604,3.731-8.333,8.333-8.333c4.603,0,8.334,3.729,8.334,8.333C35.281,31.426,31.55,35.156,26.947,35.156"/>
		<path fill="#00A99D" d="M43.293,13.478c0,1.657-1.343,3-3,3c-1.656,0-3.001-1.343-3.001-3c0-1.657,1.345-3,3.001-3
			C41.95,10.478,43.293,11.821,43.293,13.478"/>
	</g>
</g>
</svg>
