<?xml version="1.0" encoding="UTF-8" standalone="no"?>
<!-- Generator: Adobe Illustrator 16.0.0, SVG Export Plug-In . SVG Version: 6.00 Build 0)  -->
<!DOCTYPE svg  PUBLIC '-//W3C//DTD SVG 1.1//EN'  'http://www.w3.org/Graphics/SVG/1.1/DTD/svg11.dtd'>
<svg id="Layer_1" xmlns="http://www.w3.org/2000/svg" xml:space="preserve" height="54px" viewBox="0 0 55 54" width="55px" version="1.1" y="0px" x="0px" xmlns:xlink="http://www.w3.org/1999/xlink" enable-background="new 0 0 55 54">
<path d="m27.887 8.316c-11.91 0-21.567 9.657-21.567 21.569 0 9.528 6.178 17.613 14.751 20.466 1.078 0.196 1.472-0.467 1.472-1.039 0-0.512-0.018-1.87-0.028-3.671-5.999 1.304-7.267-2.89-7.267-2.89-0.98-2.492-2.395-3.155-2.395-3.155-1.958-1.337 0.149-1.312 0.149-1.312 2.164 0.154 3.304 2.224 3.304 2.224 1.924 3.295 5.048 2.343 6.276 1.792 0.197-1.396 0.754-2.345 1.37-2.885-4.789-0.544-9.824-2.395-9.824-10.659 0-2.354 0.84-4.279 2.218-5.787-0.221-0.546-0.961-2.739 0.212-5.708 0 0 1.811-0.58 5.931 2.211 1.722-0.479 3.564-0.718 5.4-0.726 1.832 0.008 3.676 0.248 5.399 0.726 4.117-2.791 5.925-2.211 5.925-2.211 1.176 2.969 0.436 5.162 0.215 5.708 1.381 1.507 2.216 3.433 2.216 5.787 0 8.286-5.042 10.109-9.847 10.643 0.773 0.665 1.463 1.981 1.463 3.995 0 2.884-0.024 5.207-0.024 5.918 0 0.576 0.388 1.246 1.482 1.035 8.564-2.857 14.736-10.937 14.736-20.462 0.001-11.912-9.655-21.569-21.567-21.569z" fill="#00A99D"/>
</svg>
