<?xml version="1.0" encoding="UTF-8" standalone="no"?>
<!-- Generator: Adobe Illustrator 16.0.0, SVG Export Plug-In . SVG Version: 6.00 Build 0)  -->
<!DOCTYPE svg  PUBLIC '-//W3C//DTD SVG 1.1//EN'  'http://www.w3.org/Graphics/SVG/1.1/DTD/svg11.dtd'>
<svg id="Layer_1" xmlns="http://www.w3.org/2000/svg" xml:space="preserve" height="54px" viewBox="0 0 55 54" width="55px" version="1.1" y="0px" x="0px" xmlns:xlink="http://www.w3.org/1999/xlink" enable-background="new 0 0 55 54">
	<g fill="#00A99D">
		<path d="m9.332 19.858h8.155v26.202h-8.155v-26.202zm4.077-13.024c2.608 0 4.723 2.12 4.723 4.719 0 2.608-2.115 4.728-4.723 4.728-2.613 0-4.724-2.119-4.724-4.728 0.001-2.599 2.111-4.719 4.724-4.719"/>
		<path d="m22.598 19.858h7.816v3.581h0.104c1.09-2.059 3.747-4.231 7.711-4.231 8.244 0 9.771 5.422 9.771 12.479v14.373h-8.14v-12.738c0-3.039-0.064-6.948-4.233-6.948-4.244 0-4.891 3.306-4.891 6.722v12.964h-8.139v-26.202z"/>
	</g>
</svg>
