<?xml version="1.0" encoding="UTF-8" standalone="no"?>
<!-- Generator: Adobe Illustrator 16.0.0, SVG Export Plug-In . SVG Version: 6.00 Build 0)  -->
<!DOCTYPE svg  PUBLIC '-//W3C//DTD SVG 1.1//EN'  'http://www.w3.org/Graphics/SVG/1.1/DTD/svg11.dtd'>
<svg id="Layer_1" xmlns="http://www.w3.org/2000/svg" xml:space="preserve" height="25.5px" viewBox="0 28.5 32 25.5" width="32px" version="1.1" y="0px" x="0px" xmlns:xlink="http://www.w3.org/1999/xlink" enable-background="new 0 28.5 32 25.5">
<path d="m20.075 36.564h-3.521v-1.73c0-0.777-0.631-1.408-1.409-1.408-0.776 0-1.408 0.631-1.408 1.408v1.73h-6.34v-1.73c0-0.777-0.631-1.408-1.409-1.408-0.777 0-1.408 0.631-1.408 1.408v1.73h-3.524c-0.584 0-1.056 0.474-1.056 1.057v15.322c0 0.583 0.472 1.057 1.056 1.057h19.019c0.584 0 1.057-0.474 1.057-1.057v-15.322c0-0.583-0.473-1.057-1.057-1.057zm-10.213 4.727v2.818h-3.346v-2.818h3.346zm1.409 0h3.346v2.818h-3.346v-2.818zm-6.164 0v2.818h-2.995v-2.818h2.995zm0 4.227v2.113h-2.995v-2.113h2.995zm1.409 0h3.346v2.113h-3.346v-2.113zm3.346 3.521v2.848h-3.346v-2.848h3.346zm1.409 0h3.346v2.848h-3.346v-2.848zm0-1.408v-2.113h3.346v2.113h-3.346zm4.754-2.113h2.993v2.113h-2.993v-2.113zm0-1.409v-2.818h2.993v2.818h-2.993zm-13.913 4.93h2.995v2.848h-2.995v-2.848zm13.913 2.848v-2.848h2.993v2.848h-2.993z" fill="#666"/>
</svg>
