<?xml version="1.0" encoding="utf-8"?>
<!-- Generator: Adobe Illustrator 16.0.0, SVG Export Plug-In . SVG Version: 6.00 Build 0)  -->
<!DOCTYPE svg PUBLIC "-//W3C//DTD SVG 1.1//EN" "http://www.w3.org/Graphics/SVG/1.1/DTD/svg11.dtd">
<svg version="1.1" id="Capa_1" xmlns="http://www.w3.org/2000/svg" xmlns:xlink="http://www.w3.org/1999/xlink" x="0px" y="0px"
	 width="26.085px" height="20.502px" viewBox="0 0 26.085 20.502" enable-background="new 0 0 26.085 20.502" xml:space="preserve">
<g>
	<g>
		<path d="M25.201,5.767l-4.494-5.258c-0.188-0.222-0.413-0.292-0.696-0.166c-0.271,0.122-0.412,0.359-0.412,0.705v2.677
			c-1.64,0.346-3.161,0.996-4.542,1.974c-1.699,1.202-3.052,2.691-4.013,4.527c-0.173,0.332-0.127,0.674,0.119,0.938
			c0.215,0.232,0.565,0.263,0.801,0.083c0.013-0.014,0.013-0.014,0.023-0.014c0.165-0.124,0.329-0.237,0.484-0.331
			c0.164-0.1,0.507-0.29,1.038-0.552c0.531-0.262,1.039-0.497,1.546-0.676c0.507-0.18,1.145-0.36,1.888-0.51
			c0.754-0.152,1.499-0.235,2.218-0.235h0.436v2.609c0,0.346,0.143,0.581,0.413,0.703c0.094,0.043,0.178,0.057,0.236,0.057
			c0.177,0,0.331-0.069,0.461-0.221l4.495-5.232C25.45,6.555,25.45,6.058,25.201,5.767z M20.896,9.688V8.224
			c0-0.4-0.247-0.745-0.578-0.759c-0.261-0.042-0.649-0.056-1.157-0.056c-1.687,0-3.386,0.332-5.073,1.008
			c1.794-1.781,3.883-2.87,6.253-3.271c0.318-0.054,0.555-0.373,0.555-0.773V2.883l2.927,3.422L20.896,9.688z"/>
		<path d="M18.536,17.748c0,0.057-0.071,0.138-0.13,0.138H2.679c-0.083,0-0.118-0.041-0.118-0.138V4.345
			c0-0.095,0.036-0.138,0.118-0.138H15.68V2.662H2.679c-0.744,0-1.346,0.676-1.428,1.519v0.165v13.403v0.166
			c0.082,0.842,0.684,1.504,1.428,1.504h15.728c0.399,0,0.745-0.162,1.015-0.482c0.273-0.328,0.412-0.732,0.412-1.188v-4.555h-1.297
			V17.748L18.536,17.748z"/>
	</g>
</g>
</svg>
