<?xml version="1.0" encoding="utf-8"?>
<!-- Generator: Adobe Illustrator 16.0.0, SVG Export Plug-In . SVG Version: 6.00 Build 0)  -->
<!DOCTYPE svg PUBLIC "-//W3C//DTD SVG 1.1//EN" "http://www.w3.org/Graphics/SVG/1.1/DTD/svg11.dtd">
<svg version="1.1" id="Capa_1" xmlns="http://www.w3.org/2000/svg" xmlns:xlink="http://www.w3.org/1999/xlink" x="0px" y="0px"
	 width="306px" height="306px" viewBox="0 0 306 306" enable-background="new 0 0 306 306" xml:space="preserve">
<g>
	<g>
		<g>
			<g id="chevron-left_6_">
				<g>
					<path fill="#E78E8E" d="M210.256,137.353c3.106,3.106,3.106,8.188,0,11.294l-82.383,82.384c-3.106,3.106-3.106,8.188,0,11.295
						l17.216,17.216c3.106,3.106,8.188,3.106,11.294,0l110.895-110.895c3.106-3.106,3.106-8.188,0-11.294L156.383,26.458
						c-3.106-3.106-8.188-3.106-11.294,0l-17.216,17.217c-3.106,3.106-3.106,8.188,0,11.294L210.256,137.353z"/>
				</g>
			</g>
		</g>
	</g>
	<g>
		<path fill="#E78E8E" d="M33.075,156.689c0,5.5,4.5,10,10,10h164c5.5,0,10-4.5,10-10v-27c0-5.5-4.5-10-10-10h-164
			c-5.5,0-10,4.5-10,10V156.689z"/>
	</g>
</g>
</svg>
