<?xml version="1.0" encoding="utf-8"?>
<!-- Generator: Adobe Illustrator 16.0.0, SVG Export Plug-In . SVG Version: 6.00 Build 0)  -->
<!DOCTYPE svg PUBLIC "-//W3C//DTD SVG 1.1//EN" "http://www.w3.org/Graphics/SVG/1.1/DTD/svg11.dtd">
<svg version="1.1" id="Layer_1" xmlns="http://www.w3.org/2000/svg" xmlns:xlink="http://www.w3.org/1999/xlink" x="0px" y="0px"
	 width="55px" height="54px" viewBox="0 0 55 54" enable-background="new 0 0 55 54" xml:space="preserve">
<g>
	<path fill="#E78E8E" d="M16.347,46.758c1.936-1.936,3.872-3.872,5.807-5.807c1.001-1.001,2.002-2.003,3.003-3.002
		c0.559-0.561,1.011-1.164,1.297-1.911c0.593-1.567,0.133-3.431-1.039-4.601c-1.016-1.019-2.031-2.03-3.046-3.047
		c-0.365-0.363-0.78-0.695-1.247-0.918c-0.896-0.425-1.798-0.515-2.77-0.389c-0.956,0.124-1.812,0.681-2.479,1.349
		c-2.268,2.27-4.536,4.537-6.805,6.805c-0.771,0.771-1.541,1.541-2.311,2.312c-1.093,1.097-1.481,2.611-1.207,4.11
		c0.194,1.062,0.879,1.874,1.615,2.611c0.877,0.875,1.753,1.75,2.629,2.629c0.672,0.672,1.542,1.184,2.498,1.307
		c1.433,0.188,2.81-0.198,3.859-1.221C16.227,46.91,16.277,46.828,16.347,46.758z M18.716,30.007
		c-0.077,0.036-0.13,0.06-0.167,0.075C18.604,30.055,18.66,30.032,18.716,30.007z M8.727,41.66c-0.004-0.004-0.009-0.01-0.012-0.012
		C8.643,41.568,8.488,41.339,8.727,41.66z M13.198,45.312c-0.018,0-0.04,0.002-0.067,0.004c-0.073,0.004-0.283-0.012-0.352-0.016
		c-0.089-0.019-0.178-0.041-0.264-0.066c-0.019-0.004-0.043-0.012-0.068-0.021c-0.028-0.014-0.055-0.027-0.083-0.043
		c-0.071-0.035-0.139-0.075-0.206-0.118c-0.055-0.034-0.078-0.061-0.096-0.067c-0.452-0.387-0.853-0.851-1.271-1.268
		C10.196,43.12,9.6,42.525,9.003,41.93c-0.052-0.054-0.105-0.105-0.159-0.16c-0.034-0.033-0.069-0.064-0.1-0.104
		C8.691,41.588,8.64,41.51,8.592,41.43c-0.028-0.048-0.055-0.099-0.078-0.146c-0.043-0.127-0.075-0.253-0.101-0.385
		c-0.006-0.074-0.006-0.147-0.006-0.226c0-0.03,0.001-0.062,0.002-0.094c0.005-0.05,0.012-0.106,0.02-0.144
		c0.015-0.071,0.082-0.267,0.103-0.334c0.043-0.084,0.089-0.168,0.14-0.244c0.058-0.094,0.24-0.326-0.054,0.053
		c0.05-0.062,0.1-0.128,0.155-0.189c0.021-0.021,0.04-0.05,0.062-0.072c0.072-0.073,0.145-0.146,0.217-0.219
		c0.385-0.384,0.769-0.768,1.154-1.149c1.287-1.287,2.574-2.575,3.861-3.862c1.141-1.143,2.283-2.284,3.424-3.425
		c0.203-0.202,0.405-0.404,0.607-0.606c0.078-0.076,0.165-0.145,0.25-0.215c-0.401,0.33,0.029,0.006,0.153-0.062
		c0.005-0.004,0.009-0.008,0.013-0.01c0.038-0.016,0.099-0.041,0.14-0.054c0.073-0.022,0.149-0.041,0.225-0.06
		c0.026-0.004,0.068-0.012,0.108-0.02c0.119-0.007,0.236-0.004,0.355,0.001c0.055,0.011,0.108,0.024,0.162,0.035
		c0.072,0.021,0.145,0.039,0.216,0.062c0.146,0.072,0.286,0.16,0.42,0.252c-0.409-0.283-0.023-0.002,0.09,0.109
		c0.074,0.075,0.15,0.15,0.225,0.229c0.278,0.277,0.556,0.557,0.835,0.834c0.609,0.607,1.217,1.217,1.825,1.824
		c0.062,0.062,0.125,0.123,0.188,0.188c0.008,0.009,0.016,0.019,0.025,0.024c0.058,0.06,0.114,0.119,0.167,0.182
		c0.002,0-0.002,0.004-0.002,0.006c0,0-0.002,0.003,0,0.003c0.047,0.074,0.089,0.152,0.129,0.229
		c0.007,0.033,0.093,0.268,0.114,0.352c0.005,0.021,0.009,0.044,0.014,0.066c0.003,0.031,0.006,0.068,0.008,0.091
		c0.004,0.077,0.001,0.155,0,0.231c-0.001,0.022-0.002,0.045-0.002,0.062c-0.023,0.132-0.058,0.258-0.099,0.385
		c-0.026,0.054-0.053,0.104-0.082,0.158c-0.018,0.033-0.036,0.063-0.055,0.094c-0.008,0.011-0.015,0.028-0.028,0.046
		c-0.054,0.063-0.117,0.12-0.176,0.18c-0.064,0.064-0.129,0.131-0.195,0.195c-2.31,2.31-4.618,4.617-6.927,6.926
		c-0.715,0.718-1.432,1.435-2.149,2.149c-0.052,0.052-0.106,0.104-0.149,0.163c-0.102,0.064-0.211,0.123-0.321,0.175
		c-0.069,0.024-0.141,0.041-0.211,0.06C13.311,45.293,13.255,45.302,13.198,45.312z"/>
	<path fill="#E78E8E" d="M37.51,25.595c1.938-1.935,3.873-3.873,5.809-5.808c1-1,2.002-2.001,3-3
		c0.562-0.561,1.002-1.151,1.285-1.901c0.6-1.562,0.123-3.414-1.049-4.585c-1.016-1.016-2.031-2.031-3.047-3.047
		c-0.365-0.364-0.766-0.708-1.232-0.93c-0.896-0.425-1.793-0.521-2.764-0.396c-0.959,0.124-1.808,0.674-2.474,1.342
		c-2.271,2.269-4.537,4.538-6.808,6.806c-0.771,0.769-1.537,1.539-2.312,2.31c-1.092,1.093-1.49,2.622-1.217,4.122
		c0.193,1.065,0.867,1.887,1.601,2.625c0.88,0.876,1.755,1.752,2.63,2.628c0.676,0.672,1.557,1.17,2.514,1.296
		c1.433,0.186,2.812-0.208,3.863-1.228C37.385,25.755,37.443,25.664,37.51,25.595z M39.878,8.843
		c-0.076,0.035-0.13,0.058-0.166,0.074C39.768,8.892,39.824,8.868,39.878,8.843z M29.891,20.498
		c-0.004-0.005-0.01-0.009-0.013-0.013C29.807,20.407,29.648,20.176,29.891,20.498z M34.363,24.15c-0.021,0-0.043,0.001-0.069,0.001
		c-0.073,0.005-0.282-0.01-0.351-0.013c-0.092-0.018-0.176-0.04-0.269-0.066c-0.017-0.005-0.041-0.014-0.065-0.024
		c-0.025-0.013-0.055-0.026-0.082-0.041c-0.07-0.035-0.139-0.076-0.205-0.117c-0.053-0.035-0.09-0.05-0.107-0.056
		c-0.451-0.386-0.867-0.837-1.283-1.256c-0.598-0.595-1.19-1.192-1.787-1.787c-0.054-0.053-0.104-0.105-0.158-0.159
		c-0.035-0.035-0.06-0.079-0.09-0.118c-0.054-0.076-0.1-0.161-0.145-0.242c-0.027-0.05-0.052-0.101-0.076-0.151
		c-0.043-0.125-0.072-0.256-0.099-0.385c-0.007-0.074-0.007-0.15-0.007-0.227c0-0.032,0.003-0.062,0.004-0.093
		c0.005-0.05,0.013-0.109,0.021-0.145c0.017-0.071,0.082-0.265,0.103-0.334c0.043-0.083,0.09-0.166,0.14-0.246
		c0.058-0.093,0.242-0.325-0.053,0.055c0.05-0.064,0.098-0.13,0.155-0.19c0.02-0.024,0.037-0.05,0.06-0.073
		c0.071-0.073,0.146-0.144,0.22-0.217c0.385-0.385,0.768-0.77,1.152-1.153c1.286-1.287,2.574-2.576,3.861-3.861
		c1.141-1.142,2.283-2.283,3.424-3.425c0.203-0.203,0.404-0.405,0.607-0.607c0.077-0.077,0.163-0.144,0.25-0.213
		c-0.4,0.33,0.027,0.005,0.15-0.063c0.007-0.001,0.009-0.006,0.015-0.009c0.036-0.014,0.101-0.039,0.14-0.053
		c0.074-0.023,0.147-0.041,0.227-0.058c0.025-0.007,0.066-0.013,0.107-0.021c0.119-0.006,0.236-0.005,0.354,0.002
		c0.057,0.01,0.105,0.023,0.164,0.035c0.072,0.018,0.143,0.04,0.214,0.063c0.147,0.072,0.272,0.17,0.408,0.265
		c-0.409-0.283-0.036,0.01,0.076,0.123c0.075,0.075,0.151,0.151,0.227,0.226c0.278,0.278,0.556,0.557,0.835,0.834
		c0.608,0.609,1.217,1.217,1.825,1.825c0.062,0.063,0.125,0.126,0.188,0.188c0.01,0.011,0.019,0.019,0.022,0.026
		c0.062,0.058,0.127,0.104,0.183,0.167c0,0,0.004-0.001,0.006,0l0,0c0.049,0.073,0.093,0.149,0.133,0.225
		c0.007,0.035,0.096,0.266,0.115,0.35c0.004,0.022,0.009,0.045,0.012,0.066c0.005,0.034,0.01,0.068,0.01,0.093
		c0.002,0.076,0.002,0.155,0,0.231c0,0.025,0,0.044,0,0.061c-0.023,0.131-0.061,0.258-0.1,0.386
		c-0.027,0.052-0.053,0.104-0.082,0.156c-0.018,0.033-0.037,0.065-0.057,0.095c-0.01,0.009-0.017,0.028-0.028,0.044
		c-0.052,0.064-0.114,0.121-0.175,0.181c-0.064,0.064-0.131,0.129-0.195,0.193c-2.307,2.309-4.616,4.619-6.926,6.927
		c-0.717,0.716-1.435,1.432-2.148,2.149c-0.053,0.053-0.105,0.104-0.15,0.165c-0.102,0.066-0.211,0.123-0.318,0.175
		c-0.07,0.024-0.143,0.041-0.212,0.06C34.477,24.128,34.417,24.139,34.363,24.15z"/>
	<path fill="#E78E8E" d="M16.184,42.729c-0.716,0.717-1.425,1.436-2.142,2.15c-0.054,0.053-0.103,0.104-0.146,0.163
		c-0.102,0.065-0.21,0.123-0.319,0.175c-0.069,0.024-0.141,0.041-0.211,0.061c-0.055,0.017-0.112,0.023-0.168,0.035
		c-0.017,0-0.039,0.002-0.068,0.002c-0.073,0.006-0.281-0.01-0.35-0.013c-0.089-0.019-0.178-0.041-0.264-0.067
		c-0.021-0.004-0.043-0.012-0.068-0.021c-0.028-0.013-0.055-0.026-0.083-0.042c-0.072-0.035-0.139-0.074-0.206-0.117
		c-0.055-0.035-0.078-0.062-0.096-0.068c-0.452-0.387-0.853-0.851-1.271-1.268c-0.595-0.597-1.191-1.191-1.788-1.787
		c-0.052-0.054-0.105-0.105-0.159-0.16c-0.034-0.033-0.069-0.064-0.1-0.104c-0.053-0.078-0.104-0.156-0.152-0.235
		c-0.028-0.049-0.055-0.1-0.078-0.147C8.471,41.157,8.44,41.031,8.414,40.9c-0.006-0.075-0.006-0.148-0.006-0.227
		c0-0.029,0.001-0.062,0.002-0.094c0.005-0.05,0.012-0.105,0.02-0.145c0.015-0.07,0.082-0.266,0.103-0.334
		c0.043-0.084,0.089-0.168,0.14-0.244c0.014-0.022,0.036-0.057,0.056-0.084c-0.038,0.043-0.074,0.092-0.111,0.138
		c0.222-0.285,0.174-0.226,0.111-0.138c0.015-0.02,0.029-0.034,0.045-0.054c0.021-0.021,0.04-0.05,0.062-0.071
		c0.072-0.074,0.145-0.146,0.217-0.219c0.385-0.385,0.77-0.769,1.154-1.152c1.287-1.285,2.561-2.574,3.847-3.86
		c0.734-0.733,1.622-1.466,2.188-2.201V28.07c0,0.115-0.255,0.234-0.38,0.361c-2.269,2.269-4.531,4.536-6.799,6.805
		c-0.771,0.771-1.539,1.541-2.308,2.311c-1.093,1.096-1.479,2.611-1.204,4.11c0.194,1.062,0.879,1.874,1.615,2.612
		c0.876,0.875,1.753,1.75,2.629,2.629c0.673,0.672,1.543,1.183,2.498,1.306c1.432,0.187,2.796-0.198,3.846-1.22
		c0.044-0.045,0.103-0.09,0.103-0.137v-4.188C16.242,42.686,16.208,42.707,16.184,42.729z M8.714,41.648
		c-0.072-0.08-0.227-0.312,0.012,0.012C8.722,41.656,8.718,41.65,8.714,41.648z"/>
	<path fill="#E78E8E" d="M27.92,16.385c-1.092,1.093-1.49,2.622-1.217,4.122c0.193,1.065,0.867,1.887,1.602,2.625
		c0.877,0.876,1.754,1.752,2.629,2.628c0.676,0.672,1.623,1.17,2.578,1.296c1.004,0.129,1.865-0.023,2.903-0.476v-3.931
		c-0.378,0.356-0.78,0.711-1.134,1.067c-0.055,0.053-0.143,0.104-0.187,0.162c-0.101,0.068-0.229,0.123-0.339,0.178
		c-0.066,0.024-0.146,0.04-0.219,0.06c-0.059,0.013-0.115,0.023-0.173,0.035c-0.021,0-0.046,0.001-0.069,0.001
		c-0.07,0.005-0.286-0.01-0.354-0.013c-0.09-0.018-0.178-0.04-0.267-0.066c-0.019-0.005-0.043-0.014-0.069-0.024
		c-0.023-0.013-0.053-0.026-0.082-0.041c-0.068-0.035-0.137-0.076-0.205-0.117c-0.053-0.035-0.09-0.05-0.104-0.056
		c-0.454-0.386-0.867-0.837-1.285-1.256c-0.598-0.595-1.191-1.192-1.785-1.787c-0.056-0.053-0.105-0.105-0.16-0.159
		c-0.035-0.035-0.06-0.079-0.086-0.118c-0.01-0.009-0.02-0.022-0.025-0.033c-0.066-0.077-0.206-0.283-0.012-0.021
		c-0.039-0.062-0.073-0.126-0.109-0.188c-0.027-0.05-0.052-0.101-0.074-0.151c-0.045-0.125-0.074-0.256-0.101-0.385
		c-0.007-0.074-0.007-0.15-0.007-0.227c0-0.032,0.004-0.062,0.004-0.093c0.005-0.05,0.013-0.109,0.021-0.145
		c0.017-0.071,0.082-0.265,0.103-0.334c0.043-0.083,0.092-0.166,0.14-0.246c0.015-0.023,0.035-0.055,0.058-0.083
		c-0.037,0.045-0.074,0.091-0.108,0.138c0.223-0.285,0.172-0.226,0.108-0.138c0.018-0.018,0.029-0.035,0.045-0.053
		c0.021-0.024,0.039-0.05,0.062-0.073c0.072-0.073,0.146-0.144,0.222-0.217c0.383-0.385,0.766-0.77,1.15-1.153
		c1.286-1.287,2.643-2.576,3.93-3.861c0.352-0.35,0.737-0.698,1.115-1.047V8.029c-2.074,2.014-4.102,4.029-6.115,6.046
		C29.531,14.844,28.693,15.614,27.92,16.385z"/>
	<path fill="#E78E8E" d="M32.303,19.273c-1.672,1.67-3.341,3.339-5.009,5.009c-2.464,2.463-4.926,4.926-7.388,7.389
		c-0.352,0.351-0.704,0.702-1.056,1.054c-0.569,0.569-0.569,1.521,0,2.088c0.569,0.571,1.519,0.571,2.089,0
		c1.669-1.67,3.339-3.338,5.008-5.008c2.464-2.462,4.926-4.926,7.389-7.388c0.352-0.352,0.702-0.703,1.055-1.054
		c0.569-0.57,0.569-1.52,0-2.09C33.82,18.703,32.871,18.703,32.303,19.273L32.303,19.273z"/>
</g>
</svg>
