<?xml version="1.0" encoding="utf-8"?>
<!-- Generator: Adobe Illustrator 16.0.0, SVG Export Plug-In . SVG Version: 6.00 Build 0)  -->
<!DOCTYPE svg PUBLIC "-//W3C//DTD SVG 1.1//EN" "http://www.w3.org/Graphics/SVG/1.1/DTD/svg11.dtd">
<svg version="1.1" id="Layer_1" xmlns="http://www.w3.org/2000/svg" xmlns:xlink="http://www.w3.org/1999/xlink" x="0px" y="0px"
	 width="55.121px" height="55.107px" viewBox="0 0 55.121 55.107" enable-background="new 0 0 55.121 55.107" xml:space="preserve">
<path fill="#E78E8E" d="M2.875,43.284c4.54,2.91,9.932,4.608,15.724,4.608c19.045,0,29.805-16.086,29.158-30.516
	c2.002-1.443,3.742-3.251,5.117-5.311c-1.84,0.814-3.817,1.368-5.892,1.615c2.117-1.268,3.744-3.276,4.511-5.676
	c-1.981,1.177-4.179,2.03-6.515,2.491c-1.871-1.994-4.537-3.239-7.487-3.239c-6.621,0-11.488,6.18-9.992,12.597
	c-8.526-0.428-16.085-4.513-21.142-10.72C3.668,13.746,4.961,19.779,9.53,22.831c-1.683-0.053-3.266-0.517-4.648-1.284
	C4.771,26.3,8.176,30.745,13.11,31.735c-1.444,0.395-3.025,0.481-4.63,0.176c1.302,4.077,5.091,7.041,9.581,7.125
	C13.75,42.418,8.316,43.927,2.875,43.284z"/>
</svg>
