<?xml version="1.0" encoding="utf-8"?>
<!-- Generator: Adobe Illustrator 16.0.0, SVG Export Plug-In . SVG Version: 6.00 Build 0)  -->
<!DOCTYPE svg PUBLIC "-//W3C//DTD SVG 1.1//EN" "http://www.w3.org/Graphics/SVG/1.1/DTD/svg11.dtd">
<svg version="1.1" id="Layer_1" xmlns="http://www.w3.org/2000/svg" xmlns:xlink="http://www.w3.org/1999/xlink" x="0px" y="0px"
	 width="55px" height="54px" viewBox="0 0 55 54" enable-background="new 0 0 55 54" xml:space="preserve">
<path fill="#00A99D" d="M27.887,8.316c-11.91,0-21.567,9.657-21.567,21.569c0,9.528,6.178,17.613,14.751,20.466
	c1.078,0.196,1.472-0.467,1.472-1.039c0-0.512-0.018-1.87-0.028-3.671c-5.999,1.304-7.267-2.89-7.267-2.89
	c-0.98-2.492-2.395-3.155-2.395-3.155c-1.958-1.337,0.149-1.312,0.149-1.312c2.164,0.154,3.304,2.224,3.304,2.224
	c1.924,3.295,5.048,2.343,6.276,1.792c0.197-1.396,0.754-2.345,1.37-2.885c-4.789-0.544-9.824-2.395-9.824-10.659
	c0-2.354,0.84-4.279,2.218-5.787c-0.221-0.546-0.961-2.739,0.212-5.708c0,0,1.811-0.58,5.931,2.211
	c1.722-0.479,3.564-0.718,5.4-0.726c1.832,0.008,3.676,0.248,5.399,0.726c4.117-2.791,5.925-2.211,5.925-2.211
	c1.176,2.969,0.436,5.162,0.215,5.708c1.381,1.507,2.216,3.433,2.216,5.787c0,8.286-5.042,10.109-9.847,10.643
	c0.773,0.665,1.463,1.981,1.463,3.995c0,2.884-0.024,5.207-0.024,5.918c0,0.576,0.388,1.246,1.482,1.035
	c8.564-2.857,14.736-10.937,14.736-20.462C49.455,17.973,39.799,8.316,27.887,8.316z"/>
</svg>
