<?xml version="1.0" encoding="utf-8"?>
<!-- Generator: Adobe Illustrator 16.0.0, SVG Export Plug-In . SVG Version: 6.00 Build 0)  -->
<!DOCTYPE svg PUBLIC "-//W3C//DTD SVG 1.1//EN" "http://www.w3.org/Graphics/SVG/1.1/DTD/svg11.dtd">
<svg version="1.1" id="Capa_1" xmlns="http://www.w3.org/2000/svg" xmlns:xlink="http://www.w3.org/1999/xlink" x="0px" y="0px"
	 width="306px" height="306px" viewBox="0 0 306 306" enable-background="new 0 0 306 306" xml:space="preserve">
<g>
	<g>
		<g>
			<g id="chevron-left_6_">
				<g>
					<path fill="#E78E8E" d="M178.127,64.969c3.106-3.106,3.106-8.188,0.001-11.294l-17.217-17.217
						c-3.105-3.106-8.188-3.106-11.293,0L38.722,147.353c-3.106,3.106-3.106,8.188,0,11.294l110.896,110.895
						c3.106,3.106,8.188,3.106,11.294,0l17.215-17.216c3.106-3.106,3.106-8.188,0-11.295l-82.383-82.384
						c-3.106-3.106-3.106-8.188,0-11.294L178.127,64.969z"/>
				</g>
			</g>
		</g>
	</g>
	<g>
		<path fill="#E78E8E" d="M272.925,166.689c0,5.5-4.5,10-10,10h-164c-5.5,0-10-4.5-10-10v-27c0-5.5,4.5-10,10-10h164
			c5.5,0,10,4.5,10,10V166.689z"/>
	</g>
</g>
</svg>
