<?xml version="1.0" encoding="utf-8"?>
<!-- Generator: Adobe Illustrator 16.0.0, SVG Export Plug-In . SVG Version: 6.00 Build 0)  -->
<!DOCTYPE svg PUBLIC "-//W3C//DTD SVG 1.1//EN" "http://www.w3.org/Graphics/SVG/1.1/DTD/svg11.dtd">
<svg version="1.1" id="Layer_1" xmlns="http://www.w3.org/2000/svg" xmlns:xlink="http://www.w3.org/1999/xlink" x="0px" y="0px"
	 width="100px" height="100px" viewBox="0 0 100 100" style="enable-background:new 0 0 100 100;" xml:space="preserve">
<style type="text/css">
<![CDATA[
	.st0{fill:#FFFFFF;stroke:#E6E7E8;stroke-miterlimit:10;}
	.st1{fill:#F6C8CA;stroke:#DBB3B5;stroke-miterlimit:10;}
	.st2{fill:#27AAE1;stroke:#27AAE1;stroke-miterlimit:10;}
	.st3{fill:#E6E7E8;stroke:#D1D3D4;stroke-miterlimit:10;}
	.st4{stroke:#000000;stroke-miterlimit:10;}
]]>
</style>
<path id="body" class="st3" d="M76.819,63c-12.427,0-22.5-10.073-22.5-22.5c0-8.883,5.148-16.562,12.624-20.22
	C63.015,18.809,58.762,18,54.319,18c-19.882,0-36,16.118-36,36c0,19.883,16.118,36,36,36C72.598,90,87.683,76.376,90,58.73
	C86.295,61.414,81.744,63,76.819,63z"/>
<path id="lefteye" d="M46.584,55.504c1.063,0,2.917,0.304,2.917,0c0-2.171-2.006-3.932-4.48-3.932
	c-2.474,0-4.48,1.761-4.48,3.932c0,1.237,0.666,2.327,1.686,3.048C42.684,56.808,44.457,55.504,46.584,55.504z"/>
<ellipse id="blush" class="st1" cx="40.541" cy="66" rx="6.25" ry="3.5"/>
<ellipse id="mouth" cx="64.584" cy="65.167" rx="2.917" ry="2.667">
		<animateTransform
		 attributeName="transform"
		 attributeType="XML"
		 type="translate"
		 dur="2s"
		 values="0,2;0,-1;0,2"
		 repeatCount="indefinite"/>
</ellipse>
<path id="righteye" class="st4" d="M58.126,53.024c-0.453-0.675-0.867-1.378-1.246-2.103
	c0.113,0.81,0.466,1.562,1.076,2.139C57.991,53.094,58.054,53.07,58.126,53.024z"/>
<ellipse id="nose" class="st3" cx="59.88" cy="54" rx="3" ry="2.336"/>
<path id="blue" class="st2" d="M26.183,27.885c0.84-0.029,1.656,0.062,2.443,0.238c2.927-3.039,6.492-5.341,10.391-6.711
	c3.496-1.645,7.298-2.742,11.299-3.185c-2.877-3.634-6.897-6.312-11.685-7.343c-11.375-2.449-22.682,5.259-25.255,17.216
	c-1.35,6.267-0.029,12.454,3.168,17.279c-0.633-1.505-1.003-3.183-1.025-4.967C15.438,33.698,20.213,28.091,26.183,27.885z"/>
<ellipse id="cotton" class="st0" cx="20.129" cy="49.327" rx="9.31" ry="9.225"/>
<ellipse id="rim" transform="matrix(0.8933 -0.4496 0.4496 0.8933 -5.955 20.0429)" class="st0" cx="39.227" cy="22.561" rx="14.579" ry="2.771"/>
</svg>
