<?xml version="1.0" encoding="utf-8"?>
<!-- Generator: Adobe Illustrator 16.0.0, SVG Export Plug-In . SVG Version: 6.00 Build 0)  -->
<!DOCTYPE svg PUBLIC "-//W3C//DTD SVG 1.1//EN" "http://www.w3.org/Graphics/SVG/1.1/DTD/svg11.dtd">
<svg version="1.1" id="Layer_1" xmlns="http://www.w3.org/2000/svg" xmlns:xlink="http://www.w3.org/1999/xlink" x="0px" y="0px"
	 width="298px" height="105px" viewBox="0 0 298 105" enable-background="new 0 0 298 105" xml:space="preserve">
<g>
	<g>
		<g>
			<g>
				<path fill="#FFFFFF" d="M49.398,39.529c0-14.352,11.01-26.059,26.054-26.059V7.782c-17.552,0-32.194,14.211-32.194,31.747
					c0,3.72,1.506,10.541,3.309,13.655l28.885,49.598V65.584C60.408,65.584,49.398,53.878,49.398,39.529z"/>
				<path fill="#FFFFFF" d="M75.452,7.782v5.688c15.043,0,26.061,11.707,26.061,26.059c0,14.35-11.018,26.055-26.061,26.055v37.198
					l28.077-49.324c1.641-2.83,3.438-10.208,3.438-13.929C106.967,21.996,93.002,7.782,75.452,7.782z"/>
				<path fill="#FFFFFF" d="M78.754,33.75c-0.181,0-0.937-0.007-2.268-0.017c-1.326-0.013-3.335-0.02-6.03-0.02
					c-0.026,2.313-0.039,4.065-0.052,5.263c-0.006,1.194-0.019,2.823-0.019,4.885c0,1.987,0.013,4.002,0.033,6.047
					c0.013,2.047,0.025,3.409,0.039,4.085h-2.791c0.025-0.676,0.044-2.059,0.064-4.142c0.013-2.089,0.026-4.127,0.026-6.125
					c0-1.964,0-3.521,0-4.676c0-1.157-0.019-2.936-0.051-5.338c-2.404-0.009-4.342-0.007-5.835,0.01
					c-1.493,0.018-2.319,0.026-2.469,0.026v-2.333c1.163,0,2.579,0.008,4.24,0.018c1.661,0.012,3.43,0.017,5.312,0.017
					c2.726,0,5.007-0.005,6.836-0.017c1.83-0.01,2.824-0.018,2.966-0.018V33.75z"/>
				<path fill="#FFFFFF" d="M100.311,52.645l-2.113,1.74c-0.245-0.258-1.125-1.234-2.637-2.934c-1.505-1.696-3.832-4.342-6.972-7.94
					l0.02-0.152c0.427-0.112,0.996-0.358,1.707-0.735c0.71-0.376,1.305-0.789,1.789-1.228c0.42-0.382,0.783-0.855,1.093-1.418
					c0.31-0.564,0.465-1.318,0.465-2.268c0-0.866-0.227-1.614-0.685-2.241c-0.459-0.626-1.087-1.087-1.887-1.378
					c-0.653-0.248-1.338-0.397-2.055-0.447c-0.725-0.054-1.389-0.077-1.997-0.077c-0.407,0-0.717,0.003-0.93,0.009
					c-0.213,0.004-0.368,0.006-0.473,0.006c-0.025,2.145-0.039,4.032-0.045,5.669c0,1.631-0.006,2.79-0.006,3.466
					c0,1.543,0.006,3.642,0.026,6.292c0.02,2.648,0.033,4.312,0.046,4.989h-2.792c0.013-0.677,0.026-1.987,0.052-3.931
					c0.02-1.942,0.032-4.361,0.032-7.258c0-0.563,0-1.605,0-3.129c0-1.519-0.032-4.289-0.084-8.313c0.11,0,0.672-0.009,1.686-0.034
					c1.015-0.022,1.945-0.032,2.804-0.032c0.976,0,1.926,0.058,2.851,0.17c0.923,0.112,1.822,0.354,2.701,0.726
					c1.111,0.473,1.997,1.167,2.649,2.084c0.647,0.917,0.976,1.998,0.976,3.234c0,1.601-0.491,2.933-1.48,3.995
					c-0.982,1.064-1.912,1.856-2.792,2.375v0.083c1.545,1.807,3.244,3.666,5.08,5.583C99.192,51.466,100.182,52.5,100.311,52.645z"
					/>
				<path fill="#FFFFFF" d="M123.192,53.093l-2.629,1.359c-0.052-0.123-0.407-0.962-1.086-2.519
					c-0.672-1.554-1.563-3.553-2.674-5.998h-10.004c-1.188,2.625-1.751,4.895-2.824,6.491c-0.885,1.309-1.913,2.548-1.983,2.718
					l-1.28-1.917c0.291-0.584,1.499-3.166,3.632-7.745c2.12-4.579,4.323-9.39,6.611-14.436h2.203
					c2.25,5.045,4.466,9.935,6.636,14.664C121.964,50.439,123.095,52.901,123.192,53.093z M115.845,43.77
					c-0.595-1.375-1.228-2.812-1.887-4.31c-0.665-1.502-1.363-3.067-2.087-4.703l-0.071,0.015c-0.569,1.24-1.253,2.762-2.048,4.567
					c-0.801,1.81-1.46,3.284-1.991,4.432l-0.007,0.02h8.104L115.845,43.77z"/>
				<path fill="#FFFFFF" d="M146.475,32.154c-0.052,0.134-1.247,2.704-3.573,7.709c-2.327,5.003-4.549,9.827-6.669,14.472h-2.249
					c-2.326-5.208-4.562-10.126-6.694-14.761c-2.125-4.633-3.244-7.06-3.34-7.285l2.636-1.311c0.078,0.227,1.092,2.572,3.05,7.04
					c1.958,4.467,3.838,8.671,5.653,12.616h0.033c1.848-4.046,3.761-8.305,5.745-12.778c1.991-4.471,3.011-6.777,3.083-6.911
					L146.475,32.154z"/>
				<path fill="#FFFFFF" d="M165.078,53.963c-0.097,0-0.847-0.006-2.242-0.018c-1.402-0.012-3.127-0.016-5.195-0.016
					c-1.428,0-2.74,0.004-3.93,0.016c-1.182,0.012-2.189,0.018-3.01,0.018c0.018-0.653,0.039-2.066,0.058-4.241
					c0.019-2.177,0.026-4.424,0.026-6.745c0-1.272-0.008-2.958-0.021-5.053c-0.006-2.094-0.031-4.264-0.063-6.507
					c0.801,0,1.795,0.008,2.998,0.018c1.201,0.012,2.436,0.017,3.709,0.017c2.158,0,3.902-0.005,5.254-0.017
					c1.357-0.01,2.088-0.018,2.197-0.018v2.351c-0.109,0-0.814-0.011-2.113-0.026c-1.306-0.018-2.928-0.028-4.859-0.028
					c-0.847,0-1.674,0.004-2.488,0.01c-0.807,0.004-1.447,0.009-1.926,0.009c0,1.273-0.012,2.541-0.032,3.809
					c-0.026,1.268-0.032,2.465-0.032,3.592c0.504,0,1.105,0.003,1.797,0.008c0.697,0.007,1.311,0.01,1.854,0.01
					c1.984,0,3.754-0.01,5.318-0.027c1.559-0.018,2.385-0.025,2.488-0.025v2.331c-0.084,0-1.015-0.008-2.785-0.025
					c-1.771-0.016-3.386-0.026-4.853-0.026c-0.543,0-1.183,0.003-1.933,0.01c-0.749,0.005-1.383,0.008-1.887,0.008
					c0,2.13,0.006,3.819,0.02,5.069c0.006,1.251,0.019,2.297,0.025,3.143c0.666,0.012,1.474,0.021,2.424,0.027
					c0.943,0.005,1.964,0.008,3.057,0.008c1.68,0,3.088-0.006,4.232-0.016c1.143-0.011,1.783-0.019,1.919-0.019L165.078,53.963
					L165.078,53.963z"/>
				<path fill="#FFFFFF" d="M185.459,53.963c-0.129,0-0.847-0.006-2.139-0.018c-1.285-0.012-2.933-0.016-4.938-0.016
					c-1.317,0-2.578,0.004-3.761,0.016c-1.188,0.012-2.189,0.018-3.018,0.018c0.026-1.938,0.046-3.9,0.058-5.889
					c0.021-1.991,0.033-3.941,0.033-5.858c0-3.198-0.02-5.637-0.038-7.318c-0.021-1.677-0.034-2.854-0.053-3.531h2.792
					c-0.025,1.453-0.039,3.129-0.053,5.034c-0.012,1.903-0.012,3.46-0.012,4.675c0,2.961,0,5.433,0.012,7.414
					c0.014,1.98,0.021,3.029,0.021,3.142c0.458,0,1.014,0.001,1.673,0.007c0.651,0.005,1.24,0.01,1.771,0.01
					c2.022,0,3.773-0.01,5.267-0.028c1.493-0.018,2.287-0.025,2.391-0.025L185.459,53.963L185.459,53.963z"/>
				<path fill="#FFFFFF" d="M201.736,53.997h-2.785c0.006-0.677,0.026-1.883,0.053-3.618c0.02-1.735,0.025-4.226,0.025-7.468
					c0-1.284,0-2.969-0.014-5.057c-0.012-2.082-0.038-4.245-0.07-6.488h2.791c-0.025,1.611-0.045,3.485-0.059,5.619
					c-0.019,2.135-0.025,3.878-0.025,5.23c0,3.425,0.007,6.075,0.025,7.954C201.711,52.044,201.724,53.32,201.736,53.997z"/>
				<path fill="#FFFFFF" d="M229.115,31.367c-0.019,1.769-0.037,3.792-0.059,6.068c-0.019,2.275-0.025,3.916-0.025,4.918
					c0,3.2,0.007,5.744,0.033,7.629c0.025,1.887,0.032,2.894,0.032,3.017l-2.249,1.098c-3.398-4.598-6.578-8.743-9.538-12.442
					c-2.96-3.701-4.673-5.84-5.13-6.414l-0.033,0.017c0,3.018,0.02,6.728,0.059,11.129c0.039,4.394,0.071,6.934,0.077,7.611h-2.635
					c0.011-0.281,0.024-1.286,0.052-3.009c0.02-1.724,0.03-4.123,0.03-7.197c0-1.229-0.005-2.86-0.019-4.895
					c-0.006-2.032-0.033-4.188-0.063-6.463l2.563-1.216c0.207,0.258,1.933,2.45,5.184,6.567c3.243,4.123,6.307,7.951,9.188,11.488
					l0.027-0.015c0-1.736-0.02-4.655-0.065-8.759s-0.071-7.148-0.071-9.128h2.643V31.367L229.115,31.367z"/>
				<path fill="#FFFFFF" d="M248.334,47.625c0,1.16-0.277,2.178-0.822,3.051c-0.548,0.873-1.285,1.582-2.209,2.118
					c-0.846,0.498-1.815,0.871-2.914,1.124c-1.092,0.254-2.301,0.382-3.638,0.382c-0.718,0-1.467-0.022-2.243-0.068
					c-0.769-0.044-1.221-0.074-1.337-0.084l-0.136-2.433c0.155,0.023,0.594,0.064,1.318,0.126c0.723,0.062,1.57,0.092,2.553,0.092
					c0.6,0,1.369-0.076,2.314-0.234c0.949-0.16,1.672-0.36,2.176-0.608c0.666-0.329,1.177-0.72,1.531-1.183
					c0.356-0.459,0.53-1.046,0.53-1.758c0-0.754-0.174-1.393-0.53-1.916c-0.354-0.523-0.942-1.03-1.764-1.514
					c-0.529-0.316-1.215-0.671-2.061-1.065c-0.848-0.395-1.609-0.8-2.289-1.216c-1.143-0.7-1.964-1.462-2.455-2.292
					c-0.49-0.829-0.736-1.751-0.736-2.763c0-1.037,0.232-1.936,0.672-2.696c0.445-0.759,1.021-1.411,1.738-1.953
					c0.718-0.541,1.596-0.947,2.643-1.216c1.041-0.271,2.204-0.406,3.477-0.406c0.698,0,1.409,0.021,2.12,0.058
					c0.724,0.04,1.131,0.067,1.233,0.077l0.234,2.452c-0.098-0.012-0.512-0.05-1.229-0.12c-0.724-0.068-1.615-0.1-2.669-0.1
					c-0.64,0-1.287,0.069-1.958,0.211c-0.664,0.141-1.26,0.357-1.765,0.651c-0.452,0.258-0.833,0.621-1.15,1.081
					c-0.315,0.462-0.472,1.003-0.472,1.624c0,0.55,0.168,1.084,0.498,1.596c0.329,0.513,0.949,1.039,1.868,1.578
					c0.459,0.285,1.071,0.606,1.835,0.973c0.756,0.367,1.506,0.764,2.236,1.192c1.123,0.664,1.969,1.426,2.545,2.291
					C248.05,45.538,248.334,46.521,248.334,47.625z"/>
				<path fill="#FFFFFF" d="M268.578,39.107c0,1.645-0.535,3.134-1.596,4.462c-1.066,1.331-2.48,2.232-4.258,2.706
					c-0.77,0.201-1.603,0.348-2.508,0.438c-0.904,0.088-1.912,0.137-3.023,0.137l0.025,7.148h-2.785
					c0.014-0.677,0.025-1.931,0.045-3.761c0.025-1.832,0.039-4.663,0.039-8.493c0-1.216-0.014-2.71-0.019-4.479
					c-0.015-1.77-0.032-3.734-0.071-5.899c0.484-0.009,0.963-0.018,1.428-0.018s0.846,0,1.144,0c1.938,0,3.601,0.124,4.97,0.371
					c1.363,0.25,2.514,0.67,3.451,1.27c1.02,0.643,1.809,1.479,2.344,2.51C268.308,36.53,268.578,37.733,268.578,39.107z
					 M265.703,39.107c0-1.16-0.266-2.149-0.788-2.966c-0.53-0.816-1.345-1.46-2.437-1.934c-0.678-0.292-1.408-0.476-2.197-0.549
					c-0.788-0.074-1.596-0.112-2.428-0.112c-0.104,0-0.209,0-0.312,0c-0.097,0-0.208,0-0.317,0c0,0.125-0.013,0.97-0.031,2.535
					c-0.026,1.566-0.033,2.807-0.033,3.719c0,0.834,0,1.821,0.007,2.958c0.007,1.137,0.007,1.787,0.007,1.941
					c0.103,0,0.227,0,0.355,0c0.136,0,0.238,0,0.324,0c0.748,0,1.556-0.05,2.408-0.152c0.848-0.104,1.578-0.287,2.185-0.555
					c1.06-0.453,1.868-1.077,2.431-1.88C265.426,41.317,265.703,40.313,265.703,39.107z"/>
				<path fill="#FFFFFF" d="M294.014,42.69c0,1.825-0.311,3.499-0.938,5.029c-0.618,1.526-1.44,2.783-2.435,3.774
					c-1.119,1.105-2.302,1.907-3.549,2.41c-1.253,0.5-2.592,0.751-4.02,0.751c-1.396,0-2.713-0.239-3.954-0.719
					c-1.233-0.478-2.353-1.19-3.341-2.137c-1.093-1.023-1.971-2.317-2.643-3.877c-0.666-1.562-1.008-3.314-1.008-5.266
					c0-1.731,0.271-3.313,0.795-4.738c0.536-1.427,1.324-2.71,2.385-3.845c0.975-1.061,2.145-1.88,3.488-2.461
					c1.351-0.58,2.779-0.871,4.277-0.871c1.52,0,2.929,0.272,4.22,0.82c1.294,0.548,2.411,1.304,3.367,2.273
					c1.098,1.125,1.933,2.452,2.501,3.979C293.729,39.341,294.014,40.966,294.014,42.69z M291.144,42.961
					c0-1.465-0.252-2.905-0.737-4.318c-0.49-1.413-1.239-2.6-2.242-3.557c-0.678-0.654-1.434-1.162-2.272-1.52
					c-0.841-0.362-1.784-0.543-2.819-0.543c-1.014,0-1.958,0.183-2.836,0.55c-0.873,0.366-1.66,0.904-2.371,1.613
					c-0.912,0.9-1.609,2.015-2.107,3.344c-0.51,1.333-0.763,2.719-0.763,4.16c0,1.621,0.259,3.074,0.776,4.36
					c0.51,1.285,1.233,2.372,2.17,3.262c0.641,0.619,1.403,1.118,2.288,1.494c0.872,0.378,1.815,0.565,2.825,0.565
					c1,0,1.938-0.181,2.811-0.547c0.877-0.368,1.666-0.895,2.377-1.582c0.847-0.811,1.538-1.845,2.081-3.104
					C290.873,45.887,291.144,44.493,291.144,42.961z"/>
			</g>
		</g>
		<text transform="matrix(1 0 0 1 4.8579 54.2842)" fill="#FFFFFF" font-family="'TrebuchetMS-Bold'" font-size="32.5447">MY</text>
	</g>
</g>
</svg>
