<?xml version="1.0" encoding="utf-8"?>
<!-- Generator: Adobe Illustrator 16.0.0, SVG Export Plug-In . SVG Version: 6.00 Build 0)  -->
<!DOCTYPE svg PUBLIC "-//W3C//DTD SVG 1.1//EN" "http://www.w3.org/Graphics/SVG/1.1/DTD/svg11.dtd">
<svg version="1.1" xmlns="http://www.w3.org/2000/svg" xmlns:xlink="http://www.w3.org/1999/xlink" x="0px" y="0px" width="612px"
	 height="792px" viewBox="0 0 612 792" enable-background="new 0 0 612 792" xml:space="preserve">
<g id="Layer_1">
	<g>
		<g>
			<path fill="#EC008C" d="M142.092,391.223c-11.568,23.782,33.069,22.924,46.329,23.042c15.196,0.134,61.419-1.487,50.317-27.962
				c-1.208-2.882-4.41,0.503-3.477,2.729c8.479,20.219-35.565,20.368-46.555,20.319c-9.15-0.041-51.452,0.512-43.466-15.907
				C146.481,390.893,143.529,388.268,142.092,391.223L142.092,391.223z"/>
		</g>
	</g>
	<g>
		<g>
			<path d="M173.265,333.097c-2.524,0.286-4.793,1.26-7.165,2.127c-1.508,0.551-2.037,2.943-1.117,4.17
				c3.783,5.05,8.727,3.196,9.843-2.732c1.113-5.907-1.869-13.147-8.642-13.398c-9.606-0.355-15.353,7.514-16.795,16.205
				c-1.104,6.648,0.382,18.341,9.591,17.209c2.379-0.292,2.926-5.24,0.285-4.915c-6.056,0.745-6.642-6.652-6.267-11.029
				c0.545-6.36,4.092-11.306,10.495-12.456c4.274-0.768,7.234,1.846,7.716,5.959c0.403,3.443-1.156,4.314-3.281,1.477
				c-0.372,1.39-0.745,2.78-1.117,4.17c2.049-0.749,3.974-1.624,6.169-1.873C175.362,337.742,175.913,332.796,173.265,333.097
				L173.265,333.097z"/>
		</g>
	</g>
	<g>
		<g>
			<path d="M200.489,351.717c17.082-11.988,26.214-31.505,28.026-51.941c0.71-8.007,0.907-16.239-0.31-24.207
				c-0.689-4.516-2.636-12.457-8.543-12.432c-14.843,0.062-8.688,28.564-7.071,36.444c1.679,8.177,3.971,16.163,7.88,23.581
				c5.704,10.822,14.41,19.7,23.549,27.67c5.904,5.149,12.266,9.688,18.54,14.367c1.955,1.458,3.463-2.082,2.844-3.564
				c-15.406-36.846-5.702-77.907,14.503-110.859c1.503-2.452-1.449-4.992-3.148-2.22c-21.052,34.332-30.853,77.488-14.831,115.807
				c0.948-1.188,1.896-2.376,2.844-3.564c-18.638-13.899-38.15-28.601-45.591-51.661c-1.892-5.864-3.101-12.01-4.077-18.083
				c-1.029-6.404-2.582-14.976,0.506-21.037c1.011-1.984,3.546-2.484,5.323-1.308c2.223,1.471,2.868,5.187,3.337,7.561
				c1.422,7.2,1.062,14.81,0.549,22.086c-1.369,19.443-9.723,37.851-25.976,49.256C196.858,349.009,197.928,353.515,200.489,351.717
				L200.489,351.717z"/>
		</g>
	</g>
	<g id="Layer_3">
	</g>
	<g>
		<g>
			<path fill="#EC008C" d="M145.557,374.2c-1.033-8.363,6.674-13.495,13.383-16.497c9.658-4.322,20.631-5.704,31.119-5.92
				c13.018-0.269,46.315,2.292,44.355,22.058c-0.325,3.275,3.559,2.458,3.837-0.348c2.34-23.599-32.599-26.941-48.811-26.607
				c-16.323,0.336-50.531,5.704-47.665,28.914C142.177,379.051,145.871,376.745,145.557,374.2L145.557,374.2z"/>
		</g>
	</g>
</g>
<g id="Layer_4">
	<g>
		<g>
			<path d="M290.071,334.302c-2.312-8.172-9.764-2.021-12.939,1.936c-5.094,6.347-9.164,15.49-5.744,23.423
				c3.248,7.534,8.694,4.422,11.904-1.13c3.765-6.514,5.866-14.417,7.52-21.713c-1.243-0.104-2.486-0.208-3.729-0.312
				c-0.036,9.339-0.37,18.722,4.18,27.19c1.479,2.754,4.629-0.584,3.477-2.729c-4.184-7.787-3.853-16.226-3.82-24.81
				c0.011-2.762-3.139-2.916-3.729-0.312c-0.682,3.008-6.557,25.659-10.501,23.582c-5.507-2.9-1.887-11.778,0.055-15.505
				c1.072-2.057,8.136-12.96,9.853-6.894C287.435,339.998,290.712,336.568,290.071,334.302L290.071,334.302z"/>
		</g>
	</g>
	<g>
		<g>
			<path d="M307.51,312.283c-6.499,6.422-8.139,17.278-9.43,25.895c-1.137,7.588-2.919,19.039,1.447,25.997
				c1.516,2.416,4.184-1.708,2.945-3.681c-3.436-5.476-1.47-15.553-0.716-21.504c0.872-6.887,2.163-17.431,7.399-22.605
				C310.827,314.732,309.7,310.119,307.51,312.283L307.51,312.283z"/>
		</g>
	</g>
	<g>
		<g>
			<path d="M301.823,341.717c0.955-0.828,5.135-5.01,6.567-3.304c1.421,1.692,1.023,5.679,1.097,7.711
				c0.201,5.548-0.042,12.317,3.688,16.865c5.143,6.272,12.808,0.352,16.021-4.615c4.334-6.698,7.067-16.75,3.557-24.352
				c-1.216-2.634-3.595-2.877-5.814-1.412c-3.913,2.583-5.3,9.24-5.665,13.521c-0.733,8.604,5.504,18.865,14.807,19.23
				c10.732,0.421,17.27-8.825,20.029-18.076c1.214-4.071,1.96-22.163-6.466-18.799c-4.26,1.701-5.979,9.557-6.469,13.397
				c-0.659,5.174-0.176,10.938,2.739,15.428c2.312,3.561,5.626,5.997,10.006,5.729c5.729-0.35,9.616-6.461,11.988-10.932
				c1.338-2.521-1.612-5.115-3.148-2.22c-2.097,3.95-5.361,9.041-10.556,8.143c-3.841-0.664-6.034-5.037-6.933-8.391
				c-1.33-4.968-0.213-10.43,1.993-14.962c2.062-4.235,3.561,2.458,3.846,3.787c0.557,2.587-0.001,5.335-0.623,7.849
				c-2.48,10.01-13.02,18.817-22.605,11.137c-4.466-3.579-5.452-9.978-4.193-15.215c0.546-2.269,3.225-8.409,4.403-3.017
				c0.479,2.188,0.437,4.542,0.047,6.744c-0.892,5.038-6.292,18.806-13.529,13.783c-3.688-2.559-3.148-10.115-3.284-13.971
				c-0.125-3.553,0.216-8.417-2.233-11.335c-3.097-3.688-8.521,1.1-10.914,3.175C298.374,339.179,299.474,343.754,301.823,341.717
				L301.823,341.717z"/>
		</g>
	</g>
	<g>
		<g>
			<path d="M394.72,302.416c-7.559,6.062-11.022,15.585-13.107,24.751c-2.118,9.313-3.12,19.665-1.85,29.173
				c1.272,9.521,7.969,18.371,16.266,22.929c9.187,5.046,18.793,2.131,25.543-5.298c1.752-1.928-0.275-5.696-2.475-3.275
				c-14.142,15.564-34.444-1.694-35.815-18.389c-0.655-7.971,0.316-16.38,1.953-24.169c1.661-7.905,4.635-16.41,11.132-21.62
				C398.241,305.014,397.154,300.464,394.72,302.416L394.72,302.416z"/>
		</g>
	</g>
	<g>
		<g>
			<path d="M384.86,340.972c-0.572-3.454-1.699-6.936-5.117-8.437c-2.712-1.191-5.972,0.752-7.965,2.434
				c-6.212,5.243-8.021,14.652-7.217,22.381c0.221,2.124,1.176,4.722,3.5,5.239c2.225,0.496,4.461-1.269,5.976-2.657
				c5.169-4.738,8.77-11.695,10.744-18.342c0.891-2.999-2.738-3.947-3.623-0.971c-1.424,4.796-3.863,9.313-6.978,13.222
				c-0.72,0.903-4.88,5.915-5.666,2.903c-1.339-5.132,0.355-12.127,3.565-16.241c1.249-1.602,3.022-3.093,5.1-3.337
				c2.783-0.328,3.572,3.43,3.899,5.405C381.615,345.804,385.282,343.522,384.86,340.972L384.86,340.972z"/>
		</g>
	</g>
</g>
</svg>
